<?xml version="1.0" encoding="UTF-8" standalone="no"?>
<!DOCTYPE svg PUBLIC "-//W3C//DTD SVG 1.1//EN"
 "http://www.w3.org/Graphics/SVG/1.1/DTD/svg11.dtd">
<!-- Generated by graphviz version 2.38.0 (20140413.2041)
 -->
<!-- Title: G Pages: 1 -->
<svg width="174pt" height="508pt"
 viewBox="0.00 0.00 174.00 508.00" xmlns="http://www.w3.org/2000/svg" xmlns:xlink="http://www.w3.org/1999/xlink">
<g id="graph0" class="graph" transform="scale(1 1) rotate(0) translate(4 504)">
<title>G</title>
<polygon fill="white" stroke="none" points="-4,4 -4,-504 170,-504 170,4 -4,4"/>
<g id="clust1" class="cluster"><title>cluster_Global</title>
<path fill="none" stroke="gray" d="M20,-8C20,-8 146,-8 146,-8 152,-8 158,-14 158,-20 158,-20 158,-480 158,-480 158,-486 152,-492 146,-492 146,-492 20,-492 20,-492 14,-492 8,-486 8,-480 8,-480 8,-20 8,-20 8,-14 14,-8 20,-8"/>
<text text-anchor="middle" x="83" y="-479.2" font-family="Times New Roman,serif" font-size="11.00" fill="gray">Global</text>
</g>
<g id="clust3" class="cluster"><title>cluster_\controller</title>
<path fill="none" stroke="gray" d="M28,-392C28,-392 138,-392 138,-392 144,-392 150,-398 150,-404 150,-404 150,-452 150,-452 150,-458 144,-464 138,-464 138,-464 28,-464 28,-464 22,-464 16,-458 16,-452 16,-452 16,-404 16,-404 16,-398 22,-392 28,-392"/>
<text text-anchor="middle" x="83" y="-451.2" font-family="Times New Roman,serif" font-size="11.00" fill="gray">controller</text>
</g>
<g id="clust4" class="cluster"><title>cluster_\model</title>
<path fill="none" stroke="gray" d="M45,-258C45,-258 121,-258 121,-258 127,-258 133,-264 133,-270 133,-270 133,-372 133,-372 133,-378 127,-384 121,-384 121,-384 45,-384 45,-384 39,-384 33,-378 33,-372 33,-372 33,-270 33,-270 33,-264 39,-258 45,-258"/>
<text text-anchor="middle" x="83" y="-371.2" font-family="Times New Roman,serif" font-size="11.00" fill="gray">model</text>
</g>
<g id="clust2" class="cluster"><title>cluster_\view</title>
<path fill="none" stroke="gray" d="M38,-16C38,-16 128,-16 128,-16 134,-16 140,-22 140,-28 140,-28 140,-238 140,-238 140,-244 134,-250 128,-250 128,-250 38,-250 38,-250 32,-250 26,-244 26,-238 26,-238 26,-28 26,-28 26,-22 32,-16 38,-16"/>
<text text-anchor="middle" x="83" y="-237.2" font-family="Times New Roman,serif" font-size="11.00" fill="gray">view</text>
</g>
<!-- \\view\\LayoutView -->
<g id="node1" class="node"><title>\\view\\LayoutView</title>
<polygon fill="none" stroke="black" points="125,-222 41,-222 41,-186 125,-186 125,-222"/>
<text text-anchor="middle" x="83" y="-201.2" font-family="Courier,monospace" font-size="11.00">LayoutView</text>
</g>
<!-- \\view\\DateTimeView -->
<g id="node2" class="node"><title>\\view\\DateTimeView</title>
<polygon fill="none" stroke="black" points="132,-168 34,-168 34,-132 132,-132 132,-168"/>
<text text-anchor="middle" x="83" y="-147.2" font-family="Courier,monospace" font-size="11.00">DateTimeView</text>
</g>
<!-- \\view\\LoginView -->
<g id="node3" class="node"><title>\\view\\LoginView</title>
<polygon fill="none" stroke="black" points="121.5,-114 44.5,-114 44.5,-78 121.5,-78 121.5,-114"/>
<text text-anchor="middle" x="83" y="-93.2" font-family="Courier,monospace" font-size="11.00">LoginView</text>
</g>
<!-- \\view\\PrgView -->
<g id="node4" class="node"><title>\\view\\PrgView</title>
<polygon fill="none" stroke="black" points="115,-60 51,-60 51,-24 115,-24 115,-60"/>
<text text-anchor="middle" x="83" y="-39.2" font-family="Courier,monospace" font-size="11.00">PrgView</text>
</g>
<!-- \\controller\\LoginController -->
<g id="node5" class="node"><title>\\controller\\LoginController</title>
<polygon fill="none" stroke="black" points="142,-436 24,-436 24,-400 142,-400 142,-436"/>
<text text-anchor="middle" x="83" y="-415.2" font-family="Courier,monospace" font-size="11.00">LoginController</text>
</g>
<!-- \\model\\User -->
<g id="node6" class="node"><title>\\model\\User</title>
<polygon fill="none" stroke="black" points="110,-356 56,-356 56,-320 110,-320 110,-356"/>
<text text-anchor="middle" x="83" y="-335.2" font-family="Courier,monospace" font-size="11.00">User</text>
</g>
<!-- \\model\\LoginModel -->
<g id="node7" class="node"><title>\\model\\LoginModel</title>
<polygon fill="none" stroke="black" points="125,-302 41,-302 41,-266 125,-266 125,-302"/>
<text text-anchor="middle" x="83" y="-281.2" font-family="Courier,monospace" font-size="11.00">LoginModel</text>
</g>
</g>
</svg>
