<?xml version="1.0" encoding="UTF-8" standalone="no"?>
<!DOCTYPE svg PUBLIC "-//W3C//DTD SVG 1.1//EN"
 "http://www.w3.org/Graphics/SVG/1.1/DTD/svg11.dtd">
<!-- Generated by graphviz version 2.38.0 (20140413.2041)
 -->
<!-- Title: G Pages: 1 -->
<svg width="174pt" height="508pt"
 viewBox="0.00 0.00 174.00 508.00" xmlns="http://www.w3.org/2000/svg" xmlns:xlink="http://www.w3.org/1999/xlink">
<g id="graph0" class="graph" transform="scale(1 1) rotate(0) translate(4 504)">
<title>G</title>
<polygon fill="white" stroke="none" points="-4,4 -4,-504 170,-504 170,4 -4,4"/>
<g id="clust1" class="cluster"><title>cluster_Global</title>
<path fill="none" stroke="gray" d="M20,-8C20,-8 146,-8 146,-8 152,-8 158,-14 158,-20 158,-20 158,-480 158,-480 158,-486 152,-492 146,-492 146,-492 20,-492 20,-492 14,-492 8,-486 8,-480 8,-480 8,-20 8,-20 8,-14 14,-8 20,-8"/>
<text text-anchor="middle" x="83" y="-479.2" font-family="Times New Roman,serif" font-size="11.00" fill="gray">Global</text>
</g>
<g id="clust4" class="cluster"><title>cluster_\model</title>
<path fill="none" stroke="gray" d="M45,-338C45,-338 121,-338 121,-338 127,-338 133,-344 133,-350 133,-350 133,-452 133,-452 133,-458 127,-464 121,-464 121,-464 45,-464 45,-464 39,-464 33,-458 33,-452 33,-452 33,-350 33,-350 33,-344 39,-338 45,-338"/>
<text text-anchor="middle" x="83" y="-451.2" font-family="Times New Roman,serif" font-size="11.00" fill="gray">model</text>
</g>
<g id="clust3" class="cluster"><title>cluster_\controller</title>
<path fill="none" stroke="gray" d="M28,-258C28,-258 138,-258 138,-258 144,-258 150,-264 150,-270 150,-270 150,-318 150,-318 150,-324 144,-330 138,-330 138,-330 28,-330 28,-330 22,-330 16,-324 16,-318 16,-318 16,-270 16,-270 16,-264 22,-258 28,-258"/>
<text text-anchor="middle" x="83" y="-317.2" font-family="Times New Roman,serif" font-size="11.00" fill="gray">controller</text>
</g>
<g id="clust2" class="cluster"><title>cluster_\view</title>
<path fill="none" stroke="gray" d="M38,-16C38,-16 128,-16 128,-16 134,-16 140,-22 140,-28 140,-28 140,-238 140,-238 140,-244 134,-250 128,-250 128,-250 38,-250 38,-250 32,-250 26,-244 26,-238 26,-238 26,-28 26,-28 26,-22 32,-16 38,-16"/>
<text text-anchor="middle" x="83" y="-237.2" font-family="Times New Roman,serif" font-size="11.00" fill="gray">view</text>
</g>
<!-- \\view\\LayoutView -->
<g id="node1" class="node"><title>\\view\\LayoutView</title>
<polygon fill="none" stroke="black" points="125,-222 41,-222 41,-186 125,-186 125,-222"/>
<text text-anchor="middle" x="83" y="-201.2" font-family="Courier,monospace" font-size="11.00">LayoutView</text>
</g>
<!-- \\view\\DateTimeView -->
<g id="node2" class="node"><title>\\view\\DateTimeView</title>
<polygon fill="none" stroke="black" points="132,-168 34,-168 34,-132 132,-132 132,-168"/>
<text text-anchor="middle" x="83" y="-147.2" font-family="Courier,monospace" font-size="11.00">DateTimeView</text>
</g>
<!-- \\view\\LoginView -->
<g id="node3" class="node"><title>\\view\\LoginView</title>
<polygon fill="none" stroke="black" points="121.5,-114 44.5,-114 44.5,-78 121.5,-78 121.5,-114"/>
<text text-anchor="middle" x="83" y="-93.2" font-family="Courier,monospace" font-size="11.00">LoginView</text>
</g>
<!-- \\view\\PrgView -->
<g id="node4" class="node"><title>\\view\\PrgView</title>
<polygon fill="none" stroke="black" points="115,-60 51,-60 51,-24 115,-24 115,-60"/>
<text text-anchor="middle" x="83" y="-39.2" font-family="Courier,monospace" font-size="11.00">PrgView</text>
</g>
<!-- \\controller\\LoginController -->
<g id="node5" class="node"><title>\\controller\\LoginController</title>
<polygon fill="none" stroke="black" points="142,-302 24,-302 24,-266 142,-266 142,-302"/>
<text text-anchor="middle" x="83" y="-281.2" font-family="Courier,monospace" font-size="11.00">LoginController</text>
</g>
<!-- \\model\\User -->
<g id="node6" class="node"><title>\\model\\User</title>
<polygon fill="none" stroke="black" points="110,-436 56,-436 56,-400 110,-400 110,-436"/>
<text text-anchor="middle" x="83" y="-415.2" font-family="Courier,monospace" font-size="11.00">User</text>
</g>
<!-- \\model\\LoginModel -->
<g id="node7" class="node"><title>\\model\\LoginModel</title>
<polygon fill="none" stroke="black" points="125,-382 41,-382 41,-346 125,-346 125,-382"/>
<text text-anchor="middle" x="83" y="-361.2" font-family="Courier,monospace" font-size="11.00">LoginModel</text>
</g>
</g>
</svg>
