<?xml version="1.0" encoding="UTF-8" standalone="no"?>
<!DOCTYPE svg PUBLIC "-//W3C//DTD SVG 1.1//EN"
 "http://www.w3.org/Graphics/SVG/1.1/DTD/svg11.dtd">
<!-- Generated by graphviz version 2.38.0 (20140413.2041)
 -->
<!-- Title: G Pages: 1 -->
<svg width="174pt" height="508pt"
 viewBox="0.00 0.00 174.00 508.00" xmlns="http://www.w3.org/2000/svg" xmlns:xlink="http://www.w3.org/1999/xlink">
<g id="graph0" class="graph" transform="scale(1 1) rotate(0) translate(4 504)">
<title>G</title>
<polygon fill="white" stroke="none" points="-4,4 -4,-504 170,-504 170,4 -4,4"/>
<g id="clust1" class="cluster"><title>cluster_Global</title>
<path fill="none" stroke="gray" d="M20,-8C20,-8 146,-8 146,-8 152,-8 158,-14 158,-20 158,-20 158,-480 158,-480 158,-486 152,-492 146,-492 146,-492 20,-492 20,-492 14,-492 8,-486 8,-480 8,-480 8,-20 8,-20 8,-14 14,-8 20,-8"/>
<text text-anchor="middle" x="83" y="-479.2" font-family="Times New Roman,serif" font-size="11.00" fill="gray">Global</text>
</g>
<g id="clust2" class="cluster"><title>cluster_\view</title>
<path fill="none" stroke="gray" d="M38,-230C38,-230 128,-230 128,-230 134,-230 140,-236 140,-242 140,-242 140,-452 140,-452 140,-458 134,-464 128,-464 128,-464 38,-464 38,-464 32,-464 26,-458 26,-452 26,-452 26,-242 26,-242 26,-236 32,-230 38,-230"/>
<text text-anchor="middle" x="83" y="-451.2" font-family="Times New Roman,serif" font-size="11.00" fill="gray">view</text>
</g>
<g id="clust3" class="cluster"><title>cluster_\controller</title>
<path fill="none" stroke="gray" d="M28,-150C28,-150 138,-150 138,-150 144,-150 150,-156 150,-162 150,-162 150,-210 150,-210 150,-216 144,-222 138,-222 138,-222 28,-222 28,-222 22,-222 16,-216 16,-210 16,-210 16,-162 16,-162 16,-156 22,-150 28,-150"/>
<text text-anchor="middle" x="83" y="-209.2" font-family="Times New Roman,serif" font-size="11.00" fill="gray">controller</text>
</g>
<g id="clust4" class="cluster"><title>cluster_\model</title>
<path fill="none" stroke="gray" d="M45,-16C45,-16 121,-16 121,-16 127,-16 133,-22 133,-28 133,-28 133,-130 133,-130 133,-136 127,-142 121,-142 121,-142 45,-142 45,-142 39,-142 33,-136 33,-130 33,-130 33,-28 33,-28 33,-22 39,-16 45,-16"/>
<text text-anchor="middle" x="83" y="-129.2" font-family="Times New Roman,serif" font-size="11.00" fill="gray">model</text>
</g>
<!-- \\view\\LayoutView -->
<g id="node1" class="node"><title>\\view\\LayoutView</title>
<polygon fill="none" stroke="black" points="125,-436 41,-436 41,-400 125,-400 125,-436"/>
<text text-anchor="middle" x="83" y="-415.2" font-family="Courier,monospace" font-size="11.00">LayoutView</text>
</g>
<!-- \\view\\DateTimeView -->
<g id="node2" class="node"><title>\\view\\DateTimeView</title>
<polygon fill="none" stroke="black" points="132,-382 34,-382 34,-346 132,-346 132,-382"/>
<text text-anchor="middle" x="83" y="-361.2" font-family="Courier,monospace" font-size="11.00">DateTimeView</text>
</g>
<!-- \\view\\LoginView -->
<g id="node3" class="node"><title>\\view\\LoginView</title>
<polygon fill="none" stroke="black" points="121.5,-328 44.5,-328 44.5,-292 121.5,-292 121.5,-328"/>
<text text-anchor="middle" x="83" y="-307.2" font-family="Courier,monospace" font-size="11.00">LoginView</text>
</g>
<!-- \\view\\PrgView -->
<g id="node4" class="node"><title>\\view\\PrgView</title>
<polygon fill="none" stroke="black" points="115,-274 51,-274 51,-238 115,-238 115,-274"/>
<text text-anchor="middle" x="83" y="-253.2" font-family="Courier,monospace" font-size="11.00">PrgView</text>
</g>
<!-- \\controller\\LoginController -->
<g id="node5" class="node"><title>\\controller\\LoginController</title>
<polygon fill="none" stroke="black" points="142,-194 24,-194 24,-158 142,-158 142,-194"/>
<text text-anchor="middle" x="83" y="-173.2" font-family="Courier,monospace" font-size="11.00">LoginController</text>
</g>
<!-- \\model\\User -->
<g id="node6" class="node"><title>\\model\\User</title>
<polygon fill="none" stroke="black" points="110,-114 56,-114 56,-78 110,-78 110,-114"/>
<text text-anchor="middle" x="83" y="-93.2" font-family="Courier,monospace" font-size="11.00">User</text>
</g>
<!-- \\model\\LoginModel -->
<g id="node7" class="node"><title>\\model\\LoginModel</title>
<polygon fill="none" stroke="black" points="125,-60 41,-60 41,-24 125,-24 125,-60"/>
<text text-anchor="middle" x="83" y="-39.2" font-family="Courier,monospace" font-size="11.00">LoginModel</text>
</g>
</g>
</svg>
