<?xml version="1.0" encoding="UTF-8" standalone="no"?>
<!DOCTYPE svg PUBLIC "-//W3C//DTD SVG 1.1//EN"
 "http://www.w3.org/Graphics/SVG/1.1/DTD/svg11.dtd">
<!-- Generated by graphviz version 2.38.0 (20140413.2041)
 -->
<!-- Title: G Pages: 1 -->
<svg width="174pt" height="500pt"
 viewBox="0.00 0.00 174.00 500.00" xmlns="http://www.w3.org/2000/svg" xmlns:xlink="http://www.w3.org/1999/xlink">
<g id="graph0" class="graph" transform="scale(1 1) rotate(0) translate(4 496)">
<title>G</title>
<polygon fill="white" stroke="none" points="-4,4 -4,-496 170,-496 170,4 -4,4"/>
<g id="clust1" class="cluster"><title>cluster_Global</title>
<path fill="none" stroke="gray" d="M20,-8C20,-8 146,-8 146,-8 152,-8 158,-14 158,-20 158,-20 158,-472 158,-472 158,-478 152,-484 146,-484 146,-484 20,-484 20,-484 14,-484 8,-478 8,-472 8,-472 8,-20 8,-20 8,-14 14,-8 20,-8"/>
<text text-anchor="middle" x="83" y="-471.2" font-family="Times New Roman,serif" font-size="11.00" fill="gray">Global</text>
</g>
<g id="clust3" class="cluster"><title>cluster_\model</title>
<path fill="none" stroke="gray" d="M45,-330C45,-330 121,-330 121,-330 127,-330 133,-336 133,-342 133,-342 133,-444 133,-444 133,-450 127,-456 121,-456 121,-456 45,-456 45,-456 39,-456 33,-450 33,-444 33,-444 33,-342 33,-342 33,-336 39,-330 45,-330"/>
<text text-anchor="middle" x="83" y="-443.2" font-family="Times New Roman,serif" font-size="11.00" fill="gray">model</text>
</g>
<g id="clust2" class="cluster"><title>cluster_\controller</title>
<path fill="none" stroke="gray" d="M28,-250C28,-250 138,-250 138,-250 144,-250 150,-256 150,-262 150,-262 150,-310 150,-310 150,-316 144,-322 138,-322 138,-322 28,-322 28,-322 22,-322 16,-316 16,-310 16,-310 16,-262 16,-262 16,-256 22,-250 28,-250"/>
<text text-anchor="middle" x="83" y="-309.2" font-family="Times New Roman,serif" font-size="11.00" fill="gray">controller</text>
</g>
<g id="clust4" class="cluster"><title>cluster_\view</title>
<path fill="none" stroke="gray" d="M48.5,-116C48.5,-116 117.5,-116 117.5,-116 123.5,-116 129.5,-122 129.5,-128 129.5,-128 129.5,-230 129.5,-230 129.5,-236 123.5,-242 117.5,-242 117.5,-242 48.5,-242 48.5,-242 42.5,-242 36.5,-236 36.5,-230 36.5,-230 36.5,-128 36.5,-128 36.5,-122 42.5,-116 48.5,-116"/>
<text text-anchor="middle" x="83" y="-229.2" font-family="Times New Roman,serif" font-size="11.00" fill="gray">view</text>
</g>
<!-- \\controller\\LoginController -->
<g id="node1" class="node"><title>\\controller\\LoginController</title>
<polygon fill="none" stroke="black" points="142,-294 24,-294 24,-258 142,-258 142,-294"/>
<text text-anchor="middle" x="83" y="-273.2" font-family="Courier,monospace" font-size="11.00">LoginController</text>
</g>
<!-- \\model\\User -->
<g id="node2" class="node"><title>\\model\\User</title>
<polygon fill="none" stroke="black" points="110,-428 56,-428 56,-392 110,-392 110,-428"/>
<text text-anchor="middle" x="83" y="-407.2" font-family="Courier,monospace" font-size="11.00">User</text>
</g>
<!-- \\model\\LoginModel -->
<g id="node3" class="node"><title>\\model\\LoginModel</title>
<polygon fill="none" stroke="black" points="125,-374 41,-374 41,-338 125,-338 125,-374"/>
<text text-anchor="middle" x="83" y="-353.2" font-family="Courier,monospace" font-size="11.00">LoginModel</text>
</g>
<!-- \\view\\LoginView -->
<g id="node4" class="node"><title>\\view\\LoginView</title>
<polygon fill="none" stroke="black" points="121.5,-214 44.5,-214 44.5,-178 121.5,-178 121.5,-214"/>
<text text-anchor="middle" x="83" y="-193.2" font-family="Courier,monospace" font-size="11.00">LoginView</text>
</g>
<!-- \\view\\PrgView -->
<g id="node5" class="node"><title>\\view\\PrgView</title>
<polygon fill="none" stroke="black" points="115,-160 51,-160 51,-124 115,-124 115,-160"/>
<text text-anchor="middle" x="83" y="-139.2" font-family="Courier,monospace" font-size="11.00">PrgView</text>
</g>
<!-- \\LayoutView -->
<g id="node6" class="node"><title>\\LayoutView</title>
<polygon fill="none" stroke="black" points="125,-106 41,-106 41,-70 125,-70 125,-106"/>
<text text-anchor="middle" x="83" y="-85.2" font-family="Courier,monospace" font-size="11.00">LayoutView</text>
</g>
<!-- \\DateTimeView -->
<g id="node7" class="node"><title>\\DateTimeView</title>
<polygon fill="none" stroke="black" points="132,-52 34,-52 34,-16 132,-16 132,-52"/>
<text text-anchor="middle" x="83" y="-31.2" font-family="Courier,monospace" font-size="11.00">DateTimeView</text>
</g>
</g>
</svg>
